<svg id="Layer_1" data-name="Layer 1" xmlns="http://www.w3.org/2000/svg" viewBox="0 0 960 560"><defs><style>.cls-1,.cls-2{fill:#2cdd99;}.cls-2{font-size:12.7px;font-family:TypoGrotesk, Typo Grotesk;letter-spacing:0.32em;}.cls-3{font-family:TypoGroteskThin, Typo Grotesk Thin;}.cls-3,.cls-4{letter-spacing:0.32em;}.cls-4{font-family:TypoGrotesk-Bold, Typo Grotesk;font-weight:700;}</style></defs><title>log</title><path class="cls-1" d="M441,183.25v1h6.5a6.93,6.93,0,0,1,4,1.57A16.59,16.59,0,0,1,458,196.66a2.8,2.8,0,0,1,0,.65V263l-61.17-79.78-.83,0H345v0c9,0,14.42,6.95,19.25,12.53l4.22,5.16L458,309.3h0l9.07,10.95H467V197.3c1-6.31,4.55-11.05,10.5-13.05H484v-1Z"/><path class="cls-1" d="M527,320.25v-1h-5.5c-1.43-1-2.76-1.64-4-2.51a18.74,18.74,0,0,1-7.45-11.23s-.09-.71-.09-1.2V238.56L572,319h0v1.23h51v-1.91c-8,0-13.92-6.95-18.75-12.53l-4.47-5.16L510,192.3h0l-8.07-9.05H501V304.3c0,6.31-4.55,12.95-10.5,14.95H484v1Z"/><path class="cls-1" d="M373.74,319.25A21.64,21.64,0,0,1,360,303.13c-1.73,7.68-7.5,13.12-14.94,16.12H338v1h43v-1Z"/><text class="cls-2" transform="translate(422.9 374.16)">Noor<tspan class="cls-3" x="42.2" y="0"> </tspan><tspan class="cls-4" x="51.04" y="0">Ahmed</tspan></text></svg>